<?xml version="1.0" encoding="UTF-8" standalone="no"?>
<!DOCTYPE svg PUBLIC "-//W3C//DTD SVG 1.1//EN"
 "http://www.w3.org/Graphics/SVG/1.1/DTD/svg11.dtd">
<!-- Generated by graphviz version 2.38.0 (20140413.2041)
 -->
<!-- Title: %3 Pages: 1 -->
<svg width="2160pt" height="402pt"
 viewBox="0.00 0.00 2160.00 401.57" xmlns="http://www.w3.org/2000/svg" xmlns:xlink="http://www.w3.org/1999/xlink">
<g id="graph0" class="graph" transform="scale(0.951577 0.951577) rotate(0) translate(4 418)">
<title>%3</title>
<polygon fill="white" stroke="none" points="-4,4 -4,-418 2265.92,-418 2265.92,4 -4,4"/>
<!-- google_compute_network._ -->
<g id="node1" class="node"><title>google_compute_network._</title>
<polygon fill="none" stroke="black" points="534.289,-225 365.289,-225 365.289,-189 534.289,-189 534.289,-225"/>
<text text-anchor="middle" x="449.789" y="-203.3" font-family="Times,serif" font-size="14.00">google_compute_network._</text>
</g>
<!-- cluster&#45;&#45;asia.var.network -->
<g id="node17" class="node"><title>cluster&#45;&#45;asia.var.network</title>
<ellipse fill="none" stroke="black" cx="662.521" cy="-180" rx="98.5829" ry="18"/>
<text text-anchor="middle" x="662.521" y="-176.3" font-family="Times,serif" font-size="14.00">cluster&#45;&#45;asia.var.network</text>
</g>
<!-- google_compute_network._&#45;&gt;cluster&#45;&#45;asia.var.network -->
<g id="edge14" class="edge"><title>google_compute_network._&#45;&gt;cluster&#45;&#45;asia.var.network</title>
<path fill="none" stroke="black" d="M534.378,-196.29C546.408,-194.749 558.834,-193.157 570.991,-191.599"/>
<polygon fill="black" stroke="black" points="571.651,-195.043 581.125,-190.301 570.761,-188.1 571.651,-195.043"/>
</g>
<!-- cluster&#45;&#45;us.var.network -->
<g id="node23" class="node"><title>cluster&#45;&#45;us.var.network</title>
<ellipse fill="none" stroke="black" cx="662.521" cy="-234" rx="92.8835" ry="18"/>
<text text-anchor="middle" x="662.521" y="-230.3" font-family="Times,serif" font-size="14.00">cluster&#45;&#45;us.var.network</text>
</g>
<!-- google_compute_network._&#45;&gt;cluster&#45;&#45;us.var.network -->
<g id="edge26" class="edge"><title>google_compute_network._&#45;&gt;cluster&#45;&#45;us.var.network</title>
<path fill="none" stroke="black" d="M534.378,-217.71C547.564,-219.399 561.226,-221.15 574.488,-222.849"/>
<polygon fill="black" stroke="black" points="574.174,-226.337 584.538,-224.137 575.064,-219.394 574.174,-226.337"/>
</g>
<!-- google_project_services._ -->
<g id="node2" class="node"><title>google_project_services._</title>
<polygon fill="none" stroke="black" points="355.346,-225 197.346,-225 197.346,-189 355.346,-189 355.346,-225"/>
<text text-anchor="middle" x="276.346" y="-203.3" font-family="Times,serif" font-size="14.00">google_project_services._</text>
</g>
<!-- google_project_services._&#45;&gt;google_compute_network._ -->
<g id="edge1" class="edge"><title>google_project_services._&#45;&gt;google_compute_network._</title>
<path fill="none" stroke="black" d="M355.542,-207C355.641,-207 355.741,-207 355.84,-207"/>
<polygon fill="black" stroke="black" points="355.104,-210.5 365.104,-207 355.104,-203.5 355.104,-210.5"/>
</g>
<!-- cluster&#45;&#45;asia.google_compute_subnetwork._ -->
<g id="node3" class="node"><title>cluster&#45;&#45;asia.google_compute_subnetwork._</title>
<polygon fill="none" stroke="black" points="1045.81,-144 788.81,-144 788.81,-108 1045.81,-108 1045.81,-144"/>
<text text-anchor="middle" x="917.31" y="-122.3" font-family="Times,serif" font-size="14.00">cluster&#45;&#45;asia.google_compute_subnetwork._</text>
</g>
<!-- cluster&#45;&#45;asia.google_container_cluster._ -->
<g id="node4" class="node"><title>cluster&#45;&#45;asia.google_container_cluster._</title>
<polygon fill="none" stroke="black" points="1286.81,-148 1053.81,-148 1053.81,-112 1286.81,-112 1286.81,-148"/>
<text text-anchor="middle" x="1170.31" y="-126.3" font-family="Times,serif" font-size="14.00">cluster&#45;&#45;asia.google_container_cluster._</text>
</g>
<!-- cluster&#45;&#45;asia.google_compute_subnetwork._&#45;&gt;cluster&#45;&#45;asia.google_container_cluster._ -->
<g id="edge7" class="edge"><title>cluster&#45;&#45;asia.google_compute_subnetwork._&#45;&gt;cluster&#45;&#45;asia.google_container_cluster._</title>
<path fill="none" stroke="black" d="M1046.02,-128.035C1046.17,-128.038 1046.33,-128.04 1046.49,-128.043"/>
<polygon fill="black" stroke="black" points="1043.58,-131.497 1053.64,-128.157 1043.69,-124.498 1043.58,-131.497"/>
</g>
<!-- cluster&#45;&#45;asia.provider.kubernetes -->
<g id="node7" class="node"><title>cluster&#45;&#45;asia.provider.kubernetes</title>
<polygon fill="none" stroke="black" points="1473.13,-148 1294.99,-130 1473.13,-112 1651.26,-130 1473.13,-148"/>
<text text-anchor="middle" x="1473.13" y="-126.3" font-family="Times,serif" font-size="14.00">cluster&#45;&#45;asia.provider.kubernetes</text>
</g>
<!-- cluster&#45;&#45;asia.google_container_cluster._&#45;&gt;cluster&#45;&#45;asia.provider.kubernetes -->
<g id="edge13" class="edge"><title>cluster&#45;&#45;asia.google_container_cluster._&#45;&gt;cluster&#45;&#45;asia.provider.kubernetes</title>
<path fill="none" stroke="black" d="M1287.18,-130C1287.34,-130 1287.5,-130 1287.66,-130"/>
<polygon fill="black" stroke="black" points="1284.92,-133.5 1294.92,-130 1284.92,-126.5 1284.92,-133.5"/>
</g>
<!-- provider.google (close) -->
<g id="node26" class="node"><title>provider.google (close)</title>
<ellipse fill="none" stroke="black" cx="1473.13" cy="-207" rx="92.8835" ry="18"/>
<text text-anchor="middle" x="1473.13" y="-203.3" font-family="Times,serif" font-size="14.00">provider.google (close)</text>
</g>
<!-- cluster&#45;&#45;asia.google_container_cluster._&#45;&gt;provider.google (close) -->
<g id="edge27" class="edge"><title>cluster&#45;&#45;asia.google_container_cluster._&#45;&gt;provider.google (close)</title>
<path fill="none" stroke="black" d="M1241.84,-148.053C1291.55,-160.778 1357.67,-177.702 1406.3,-190.151"/>
<polygon fill="black" stroke="black" points="1405.54,-193.568 1416.09,-192.657 1407.27,-186.787 1405.54,-193.568"/>
</g>
<!-- cluster&#45;&#45;asia.kubernetes_deployment._ -->
<g id="node5" class="node"><title>cluster&#45;&#45;asia.kubernetes_deployment._</title>
<polygon fill="none" stroke="black" points="1886.44,-179 1659.44,-179 1659.44,-143 1886.44,-143 1886.44,-179"/>
<text text-anchor="middle" x="1772.94" y="-157.3" font-family="Times,serif" font-size="14.00">cluster&#45;&#45;asia.kubernetes_deployment._</text>
</g>
<!-- cluster&#45;&#45;asia.provider.kubernetes (close) -->
<g id="node19" class="node"><title>cluster&#45;&#45;asia.provider.kubernetes (close)</title>
<ellipse fill="none" stroke="black" cx="2047.18" cy="-161" rx="152.973" ry="18"/>
<text text-anchor="middle" x="2047.18" y="-157.3" font-family="Times,serif" font-size="14.00">cluster&#45;&#45;asia.provider.kubernetes (close)</text>
</g>
<!-- cluster&#45;&#45;asia.kubernetes_deployment._&#45;&gt;cluster&#45;&#45;asia.provider.kubernetes (close) -->
<g id="edge11" class="edge"><title>cluster&#45;&#45;asia.kubernetes_deployment._&#45;&gt;cluster&#45;&#45;asia.provider.kubernetes (close)</title>
<path fill="none" stroke="black" d="M1886.64,-161C1886.79,-161 1886.95,-161 1887.1,-161"/>
<polygon fill="black" stroke="black" points="1884.13,-164.5 1894.13,-161 1884.13,-157.5 1884.13,-164.5"/>
</g>
<!-- cluster&#45;&#45;asia.kubernetes_service._ -->
<g id="node6" class="node"><title>cluster&#45;&#45;asia.kubernetes_service._</title>
<polygon fill="none" stroke="black" points="1872.94,-125 1672.94,-125 1672.94,-89 1872.94,-89 1872.94,-125"/>
<text text-anchor="middle" x="1772.94" y="-103.3" font-family="Times,serif" font-size="14.00">cluster&#45;&#45;asia.kubernetes_service._</text>
</g>
<!-- cluster&#45;&#45;asia.kubernetes_service._&#45;&gt;cluster&#45;&#45;asia.provider.kubernetes (close) -->
<g id="edge12" class="edge"><title>cluster&#45;&#45;asia.kubernetes_service._&#45;&gt;cluster&#45;&#45;asia.provider.kubernetes (close)</title>
<path fill="none" stroke="black" d="M1864.97,-125.056C1894.97,-131.006 1928.26,-137.61 1958.04,-143.516"/>
<polygon fill="black" stroke="black" points="1957.5,-146.978 1967.99,-145.491 1958.86,-140.112 1957.5,-146.978"/>
</g>
<!-- cluster&#45;&#45;asia.provider.kubernetes&#45;&gt;cluster&#45;&#45;asia.kubernetes_deployment._ -->
<g id="edge8" class="edge"><title>cluster&#45;&#45;asia.provider.kubernetes&#45;&gt;cluster&#45;&#45;asia.kubernetes_deployment._</title>
<path fill="none" stroke="black" d="M1561.47,-139.092C1588.87,-141.944 1619.66,-145.148 1649.04,-148.207"/>
<polygon fill="black" stroke="black" points="1649.06,-151.728 1659.37,-149.283 1649.79,-144.766 1649.06,-151.728"/>
</g>
<!-- cluster&#45;&#45;asia.provider.kubernetes&#45;&gt;cluster&#45;&#45;asia.kubernetes_service._ -->
<g id="edge9" class="edge"><title>cluster&#45;&#45;asia.provider.kubernetes&#45;&gt;cluster&#45;&#45;asia.kubernetes_service._</title>
<path fill="none" stroke="black" d="M1574.54,-122.245C1602.86,-120.058 1633.81,-117.668 1662.63,-115.442"/>
<polygon fill="black" stroke="black" points="1663.02,-118.922 1672.73,-114.662 1662.49,-111.943 1663.02,-118.922"/>
</g>
<!-- cluster&#45;&#45;us.google_compute_subnetwork._ -->
<g id="node8" class="node"><title>cluster&#45;&#45;us.google_compute_subnetwork._</title>
<polygon fill="none" stroke="black" points="1041.31,-306 793.31,-306 793.31,-270 1041.31,-270 1041.31,-306"/>
<text text-anchor="middle" x="917.31" y="-284.3" font-family="Times,serif" font-size="14.00">cluster&#45;&#45;us.google_compute_subnetwork._</text>
</g>
<!-- cluster&#45;&#45;us.google_container_cluster._ -->
<g id="node9" class="node"><title>cluster&#45;&#45;us.google_container_cluster._</title>
<polygon fill="none" stroke="black" points="1282.31,-281 1058.31,-281 1058.31,-245 1282.31,-245 1282.31,-281"/>
<text text-anchor="middle" x="1170.31" y="-259.3" font-family="Times,serif" font-size="14.00">cluster&#45;&#45;us.google_container_cluster._</text>
</g>
<!-- cluster&#45;&#45;us.google_compute_subnetwork._&#45;&gt;cluster&#45;&#45;us.google_container_cluster._ -->
<g id="edge19" class="edge"><title>cluster&#45;&#45;us.google_compute_subnetwork._&#45;&gt;cluster&#45;&#45;us.google_container_cluster._</title>
<path fill="none" stroke="black" d="M1041.6,-275.72C1043.65,-275.516 1045.7,-275.312 1047.74,-275.108"/>
<polygon fill="black" stroke="black" points="1048.34,-278.566 1057.94,-274.092 1047.65,-271.601 1048.34,-278.566"/>
</g>
<!-- cluster&#45;&#45;us.provider.kubernetes -->
<g id="node12" class="node"><title>cluster&#45;&#45;us.provider.kubernetes</title>
<polygon fill="none" stroke="black" points="1473.13,-281 1303.04,-263 1473.13,-245 1643.21,-263 1473.13,-281"/>
<text text-anchor="middle" x="1473.13" y="-259.3" font-family="Times,serif" font-size="14.00">cluster&#45;&#45;us.provider.kubernetes</text>
</g>
<!-- cluster&#45;&#45;us.google_container_cluster._&#45;&gt;cluster&#45;&#45;us.provider.kubernetes -->
<g id="edge25" class="edge"><title>cluster&#45;&#45;us.google_container_cluster._&#45;&gt;cluster&#45;&#45;us.provider.kubernetes</title>
<path fill="none" stroke="black" d="M1282.47,-263C1285.82,-263 1289.19,-263 1292.59,-263"/>
<polygon fill="black" stroke="black" points="1292.83,-266.5 1302.83,-263 1292.83,-259.5 1292.83,-266.5"/>
</g>
<!-- cluster&#45;&#45;us.google_container_cluster._&#45;&gt;provider.google (close) -->
<g id="edge28" class="edge"><title>cluster&#45;&#45;us.google_container_cluster._&#45;&gt;provider.google (close)</title>
<path fill="none" stroke="black" d="M1253.69,-244.991C1276.34,-240.038 1294.81,-236 1294.81,-236 1294.81,-236 1344.73,-227.835 1391.6,-220.17"/>
<polygon fill="black" stroke="black" points="1392.23,-223.613 1401.54,-218.545 1391.1,-216.705 1392.23,-223.613"/>
</g>
<!-- cluster&#45;&#45;us.kubernetes_deployment._ -->
<g id="node10" class="node"><title>cluster&#45;&#45;us.kubernetes_deployment._</title>
<polygon fill="none" stroke="black" points="1881.94,-325 1663.94,-325 1663.94,-289 1881.94,-289 1881.94,-325"/>
<text text-anchor="middle" x="1772.94" y="-303.3" font-family="Times,serif" font-size="14.00">cluster&#45;&#45;us.kubernetes_deployment._</text>
</g>
<!-- cluster&#45;&#45;us.provider.kubernetes (close) -->
<g id="node25" class="node"><title>cluster&#45;&#45;us.provider.kubernetes (close)</title>
<ellipse fill="none" stroke="black" cx="2047.18" cy="-253" rx="146.774" ry="18"/>
<text text-anchor="middle" x="2047.18" y="-249.3" font-family="Times,serif" font-size="14.00">cluster&#45;&#45;us.provider.kubernetes (close)</text>
</g>
<!-- cluster&#45;&#45;us.kubernetes_deployment._&#45;&gt;cluster&#45;&#45;us.provider.kubernetes (close) -->
<g id="edge23" class="edge"><title>cluster&#45;&#45;us.kubernetes_deployment._&#45;&gt;cluster&#45;&#45;us.provider.kubernetes (close)</title>
<path fill="none" stroke="black" d="M1864.97,-288.944C1895.25,-282.939 1928.88,-276.268 1958.86,-270.32"/>
<polygon fill="black" stroke="black" points="1959.76,-273.711 1968.88,-268.332 1958.39,-266.845 1959.76,-273.711"/>
</g>
<!-- cluster&#45;&#45;us.kubernetes_service._ -->
<g id="node11" class="node"><title>cluster&#45;&#45;us.kubernetes_service._</title>
<polygon fill="none" stroke="black" points="1868.44,-271 1677.44,-271 1677.44,-235 1868.44,-235 1868.44,-271"/>
<text text-anchor="middle" x="1772.94" y="-249.3" font-family="Times,serif" font-size="14.00">cluster&#45;&#45;us.kubernetes_service._</text>
</g>
<!-- cluster&#45;&#45;us.kubernetes_service._&#45;&gt;cluster&#45;&#45;us.provider.kubernetes (close) -->
<g id="edge24" class="edge"><title>cluster&#45;&#45;us.kubernetes_service._&#45;&gt;cluster&#45;&#45;us.provider.kubernetes (close)</title>
<path fill="none" stroke="black" d="M1868.78,-253C1875.58,-253 1882.54,-253 1889.57,-253"/>
<polygon fill="black" stroke="black" points="1889.91,-256.5 1899.91,-253 1889.91,-249.5 1889.91,-256.5"/>
</g>
<!-- cluster&#45;&#45;us.provider.kubernetes&#45;&gt;cluster&#45;&#45;us.kubernetes_deployment._ -->
<g id="edge20" class="edge"><title>cluster&#45;&#45;us.provider.kubernetes&#45;&gt;cluster&#45;&#45;us.kubernetes_deployment._</title>
<path fill="none" stroke="black" d="M1544.7,-273.427C1577.17,-278.224 1616.58,-284.047 1653.41,-289.488"/>
<polygon fill="black" stroke="black" points="1653.31,-293.011 1663.72,-291.011 1654.34,-286.087 1653.31,-293.011"/>
</g>
<!-- cluster&#45;&#45;us.provider.kubernetes&#45;&gt;cluster&#45;&#45;us.kubernetes_service._ -->
<g id="edge21" class="edge"><title>cluster&#45;&#45;us.provider.kubernetes&#45;&gt;cluster&#45;&#45;us.kubernetes_service._</title>
<path fill="none" stroke="black" d="M1602.59,-258.687C1624.1,-257.964 1646.19,-257.222 1667.02,-256.523"/>
<polygon fill="black" stroke="black" points="1667.26,-260.017 1677.14,-256.183 1667.03,-253.021 1667.26,-260.017"/>
</g>
<!-- provider.google -->
<g id="node13" class="node"><title>provider.google</title>
<polygon fill="none" stroke="black" points="94.6732,-225 -0.173515,-207 94.6732,-189 189.52,-207 94.6732,-225"/>
<text text-anchor="middle" x="94.6732" y="-203.3" font-family="Times,serif" font-size="14.00">provider.google</text>
</g>
<!-- provider.google&#45;&gt;google_project_services._ -->
<g id="edge2" class="edge"><title>provider.google&#45;&gt;google_project_services._</title>
<path fill="none" stroke="black" d="M189.457,-207C189.616,-207 189.776,-207 189.935,-207"/>
<polygon fill="black" stroke="black" points="187.093,-210.5 197.093,-207 187.093,-203.5 187.093,-210.5"/>
</g>
<!-- cluster&#45;&#45;asia.local.region -->
<g id="node14" class="node"><title>cluster&#45;&#45;asia.local.region</title>
<ellipse fill="none" stroke="black" cx="662.521" cy="-18" rx="98.2828" ry="18"/>
<text text-anchor="middle" x="662.521" y="-14.3" font-family="Times,serif" font-size="14.00">cluster&#45;&#45;asia.local.region</text>
</g>
<!-- cluster&#45;&#45;asia.local.region&#45;&gt;cluster&#45;&#45;asia.google_compute_subnetwork._ -->
<g id="edge3" class="edge"><title>cluster&#45;&#45;asia.local.region&#45;&gt;cluster&#45;&#45;asia.google_compute_subnetwork._</title>
<path fill="none" stroke="black" d="M724.57,-32.0536C753.069,-38.6141 780.81,-45 780.81,-45 780.81,-45 837.113,-78.657 877.132,-102.58"/>
<polygon fill="black" stroke="black" points="875.522,-105.695 885.901,-107.822 879.114,-99.6868 875.522,-105.695"/>
</g>
<!-- cluster&#45;&#45;asia.var.ip_cidr_range -->
<g id="node15" class="node"><title>cluster&#45;&#45;asia.var.ip_cidr_range</title>
<ellipse fill="none" stroke="black" cx="662.521" cy="-126" rx="118.079" ry="18"/>
<text text-anchor="middle" x="662.521" y="-122.3" font-family="Times,serif" font-size="14.00">cluster&#45;&#45;asia.var.ip_cidr_range</text>
</g>
<!-- cluster&#45;&#45;asia.var.ip_cidr_range&#45;&gt;cluster&#45;&#45;asia.google_compute_subnetwork._ -->
<g id="edge4" class="edge"><title>cluster&#45;&#45;asia.var.ip_cidr_range&#45;&gt;cluster&#45;&#45;asia.google_compute_subnetwork._</title>
<path fill="none" stroke="black" d="M781.035,-126C781.196,-126 781.357,-126 781.518,-126"/>
<polygon fill="black" stroke="black" points="778.781,-129.5 788.781,-126 778.781,-122.5 778.781,-129.5"/>
</g>
<!-- cluster&#45;&#45;asia.var.name -->
<g id="node16" class="node"><title>cluster&#45;&#45;asia.var.name</title>
<ellipse fill="none" stroke="black" cx="662.521" cy="-72" rx="89.0842" ry="18"/>
<text text-anchor="middle" x="662.521" y="-68.3" font-family="Times,serif" font-size="14.00">cluster&#45;&#45;asia.var.name</text>
</g>
<!-- cluster&#45;&#45;asia.var.name&#45;&gt;cluster&#45;&#45;asia.google_compute_subnetwork._ -->
<g id="edge5" class="edge"><title>cluster&#45;&#45;asia.var.name&#45;&gt;cluster&#45;&#45;asia.google_compute_subnetwork._</title>
<path fill="none" stroke="black" d="M724.392,-85.0031C753.519,-91.2252 789.064,-98.8181 821.611,-105.771"/>
<polygon fill="black" stroke="black" points="821.094,-109.239 831.605,-107.906 822.557,-102.394 821.094,-109.239"/>
</g>
<!-- cluster&#45;&#45;asia.var.network&#45;&gt;cluster&#45;&#45;asia.google_compute_subnetwork._ -->
<g id="edge6" class="edge"><title>cluster&#45;&#45;asia.var.network&#45;&gt;cluster&#45;&#45;asia.google_compute_subnetwork._</title>
<path fill="none" stroke="black" d="M727.31,-166.374C755.95,-160.256 790.326,-152.912 821.863,-146.175"/>
<polygon fill="black" stroke="black" points="822.944,-149.524 831.992,-144.012 821.482,-142.678 822.944,-149.524"/>
</g>
<!-- cluster&#45;&#45;asia.var.zone -->
<g id="node18" class="node"><title>cluster&#45;&#45;asia.var.zone</title>
<ellipse fill="none" stroke="black" cx="449.789" cy="-18" rx="86.3847" ry="18"/>
<text text-anchor="middle" x="449.789" y="-14.3" font-family="Times,serif" font-size="14.00">cluster&#45;&#45;asia.var.zone</text>
</g>
<!-- cluster&#45;&#45;asia.var.zone&#45;&gt;cluster&#45;&#45;asia.local.region -->
<g id="edge10" class="edge"><title>cluster&#45;&#45;asia.var.zone&#45;&gt;cluster&#45;&#45;asia.local.region</title>
<path fill="none" stroke="black" d="M536.501,-18C542.199,-18 547.976,-18 553.762,-18"/>
<polygon fill="black" stroke="black" points="554.174,-21.5001 564.174,-18 554.174,-14.5001 554.174,-21.5001"/>
</g>
<!-- root -->
<g id="node27" class="node"><title>root</title>
<ellipse fill="none" stroke="black" cx="2234.92" cy="-207" rx="27" ry="18"/>
<text text-anchor="middle" x="2234.92" y="-203.3" font-family="Times,serif" font-size="14.00">root</text>
</g>
<!-- cluster&#45;&#45;asia.provider.kubernetes (close)&#45;&gt;root -->
<g id="edge29" class="edge"><title>cluster&#45;&#45;asia.provider.kubernetes (close)&#45;&gt;root</title>
<path fill="none" stroke="black" d="M2122.71,-176.719C2161.09,-184.811 2199.92,-193 2199.92,-193 2199.92,-193 2200.65,-193.3 2201.89,-193.813"/>
<polygon fill="black" stroke="black" points="2200.85,-197.169 2211.43,-197.74 2203.51,-190.696 2200.85,-197.169"/>
</g>
<!-- cluster&#45;&#45;us.local.region -->
<g id="node20" class="node"><title>cluster&#45;&#45;us.local.region</title>
<ellipse fill="none" stroke="black" cx="662.521" cy="-396" rx="92.0841" ry="18"/>
<text text-anchor="middle" x="662.521" y="-392.3" font-family="Times,serif" font-size="14.00">cluster&#45;&#45;us.local.region</text>
</g>
<!-- cluster&#45;&#45;us.local.region&#45;&gt;cluster&#45;&#45;us.google_compute_subnetwork._ -->
<g id="edge15" class="edge"><title>cluster&#45;&#45;us.local.region&#45;&gt;cluster&#45;&#45;us.google_compute_subnetwork._</title>
<path fill="none" stroke="black" d="M722.853,-382.342C751.944,-375.645 780.81,-369 780.81,-369 780.81,-369 837.113,-335.343 877.132,-311.42"/>
<polygon fill="black" stroke="black" points="879.114,-314.313 885.901,-306.178 875.522,-308.305 879.114,-314.313"/>
</g>
<!-- cluster&#45;&#45;us.var.ip_cidr_range -->
<g id="node21" class="node"><title>cluster&#45;&#45;us.var.ip_cidr_range</title>
<ellipse fill="none" stroke="black" cx="662.521" cy="-342" rx="112.38" ry="18"/>
<text text-anchor="middle" x="662.521" y="-338.3" font-family="Times,serif" font-size="14.00">cluster&#45;&#45;us.var.ip_cidr_range</text>
</g>
<!-- cluster&#45;&#45;us.var.ip_cidr_range&#45;&gt;cluster&#45;&#45;us.google_compute_subnetwork._ -->
<g id="edge16" class="edge"><title>cluster&#45;&#45;us.var.ip_cidr_range&#45;&gt;cluster&#45;&#45;us.google_compute_subnetwork._</title>
<path fill="none" stroke="black" d="M730.6,-327.671C758.46,-321.719 791.292,-314.706 821.541,-308.244"/>
<polygon fill="black" stroke="black" points="822.642,-311.588 831.69,-306.076 821.179,-304.743 822.642,-311.588"/>
</g>
<!-- cluster&#45;&#45;us.var.name -->
<g id="node22" class="node"><title>cluster&#45;&#45;us.var.name</title>
<ellipse fill="none" stroke="black" cx="662.521" cy="-288" rx="83.3857" ry="18"/>
<text text-anchor="middle" x="662.521" y="-284.3" font-family="Times,serif" font-size="14.00">cluster&#45;&#45;us.var.name</text>
</g>
<!-- cluster&#45;&#45;us.var.name&#45;&gt;cluster&#45;&#45;us.google_compute_subnetwork._ -->
<g id="edge17" class="edge"><title>cluster&#45;&#45;us.var.name&#45;&gt;cluster&#45;&#45;us.google_compute_subnetwork._</title>
<path fill="none" stroke="black" d="M745.944,-288C757.881,-288 770.416,-288 783.043,-288"/>
<polygon fill="black" stroke="black" points="783.179,-291.5 793.179,-288 783.179,-284.5 783.179,-291.5"/>
</g>
<!-- cluster&#45;&#45;us.var.network&#45;&gt;cluster&#45;&#45;us.google_compute_subnetwork._ -->
<g id="edge18" class="edge"><title>cluster&#45;&#45;us.var.network&#45;&gt;cluster&#45;&#45;us.google_compute_subnetwork._</title>
<path fill="none" stroke="black" d="M725.684,-247.279C754.697,-253.477 789.861,-260.988 822.048,-267.864"/>
<polygon fill="black" stroke="black" points="821.42,-271.309 831.931,-269.975 822.883,-264.463 821.42,-271.309"/>
</g>
<!-- cluster&#45;&#45;us.var.zone -->
<g id="node24" class="node"><title>cluster&#45;&#45;us.var.zone</title>
<ellipse fill="none" stroke="black" cx="449.789" cy="-396" rx="80.6858" ry="18"/>
<text text-anchor="middle" x="449.789" y="-392.3" font-family="Times,serif" font-size="14.00">cluster&#45;&#45;us.var.zone</text>
</g>
<!-- cluster&#45;&#45;us.var.zone&#45;&gt;cluster&#45;&#45;us.local.region -->
<g id="edge22" class="edge"><title>cluster&#45;&#45;us.var.zone&#45;&gt;cluster&#45;&#45;us.local.region</title>
<path fill="none" stroke="black" d="M530.457,-396C540.059,-396 549.965,-396 559.827,-396"/>
<polygon fill="black" stroke="black" points="560.075,-399.5 570.074,-396 560.074,-392.5 560.075,-399.5"/>
</g>
<!-- cluster&#45;&#45;us.provider.kubernetes (close)&#45;&gt;root -->
<g id="edge30" class="edge"><title>cluster&#45;&#45;us.provider.kubernetes (close)&#45;&gt;root</title>
<path fill="none" stroke="black" d="M2121.83,-237.469C2160.49,-229.316 2199.92,-221 2199.92,-221 2199.92,-221 2200.65,-220.7 2201.89,-220.187"/>
<polygon fill="black" stroke="black" points="2203.51,-223.304 2211.43,-216.26 2200.85,-216.831 2203.51,-223.304"/>
</g>
<!-- provider.google (close)&#45;&gt;root -->
<g id="edge31" class="edge"><title>provider.google (close)&#45;&gt;root</title>
<path fill="none" stroke="black" d="M1566.15,-207C1734.18,-207 2083.79,-207 2197.4,-207"/>
<polygon fill="black" stroke="black" points="2197.64,-210.5 2207.64,-207 2197.64,-203.5 2197.64,-210.5"/>
</g>
</g>
</svg>
